<?xml version="1.0" encoding="UTF-8"?>
<svg id="Capa_1" data-name="Capa 1" xmlns="http://www.w3.org/2000/svg" viewBox="0 0 200 200">
  <defs>
    <style>
      .cls-1 {
        opacity: .1;
      }

      .cls-1, .cls-2 {
        fill: #270089;
      }

      .cls-3 {
        fill: none;
        stroke-width: 6px;
      }

      .cls-3, .cls-4 {
        stroke: #270089;
        stroke-linecap: round;
        stroke-linejoin: round;
      }

      .cls-5, .cls-4 {
        fill: #f2f2f2;
      }

      .cls-4 {
        stroke-width: 9.6px;
      }
    </style>
  </defs>
  <circle class="cls-1" cx="100" cy="96.51" r="94.5"/>
  <g>
    <polyline class="cls-4" points="45.21 72.51 73.6 72.51 73.6 93.51 22 93.51 22 72.51 30.65 72.51"/>
    <polyline class="cls-3" points="76.6 82.71 154.6 83.31 154.6 106.71"/>
    <rect class="cls-2" x="120.4" y="106.71" width="66.6" height="12" rx="4.8" ry="4.8"/>
    <rect class="cls-2" x="105.4" y="128.31" width="66.6" height="12" rx="4.8" ry="4.8"/>
    <polyline class="cls-3" points="95.2 86.31 95.2 134.91 110.2 134.91"/>
    <g>
      <rect class="cls-5" x="127" y="109.71" width="6" height="6"/>
      <rect class="cls-5" x="142.8" y="109.71" width="6" height="6"/>
      <rect class="cls-5" x="158.6" y="109.71" width="6" height="6"/>
      <rect class="cls-5" x="174.4" y="109.71" width="6" height="6"/>
    </g>
    <g>
      <rect class="cls-5" x="111.4" y="131.31" width="6" height="6"/>
      <rect class="cls-5" x="127.2" y="131.31" width="6" height="6"/>
      <rect class="cls-5" x="143" y="131.31" width="6" height="6"/>
      <rect class="cls-5" x="158.8" y="131.31" width="6" height="6"/>
    </g>
    <circle class="cls-2" cx="63.4" cy="81.51" r="2.4"/>
  </g>
</svg>