<?xml version="1.0" encoding="utf-8"?>
<!-- Generator: Adobe Illustrator 19.0.0, SVG Export Plug-In . SVG Version: 6.00 Build 0)  -->
<svg version="1.1" id="Layer_1" xmlns="http://www.w3.org/2000/svg" xmlns:xlink="http://www.w3.org/1999/xlink" x="0px" y="0px"
	 viewBox="0 0 306 377.8" style="enable-background:new 0 0 306 377.8;" xml:space="preserve">
<style type="text/css">
	.st0{clip-path:url(#SVGID_2_);fill:#290088;}
	.st1{clip-path:url(#SVGID_2_);fill:#C3C6C8;}
</style>
<g>
	<defs>
		<rect id="SVGID_1_" x="-243" y="-117.1" width="792" height="612"/>
	</defs>
	<clipPath id="SVGID_2_">
		<use xlink:href="#SVGID_1_"  style="overflow:visible;"/>
	</clipPath>
	<path class="st0" d="M296.7,226.1H209v-75.4c0-30.5-24.7-55.7-55.1-56.3c-15-0.3-29.2,5.2-40,15.5c-1.8,1.4-2.9,3.5-2.9,5.9
		c0,4.2,3.4,7.6,7.7,7.6c2.1,0,4.1-0.9,5.5-2.3l0,0c7.9-7.6,18.3-11.7,29.3-11.5c22.1,0.4,40,18.8,40,41.1v83.1
		c0,4.2,3.4,7.6,7.7,7.6c0,0,0,0,0,0c0,0,0,0,0,0h95.4c4.3,0,7.7-3.4,7.7-7.6C304.4,229.5,301,226.1,296.7,226.1"/>
	<path class="st0" d="M187.3,251.6c-2.2,0-4.1,0.9-5.5,2.3l0,0c-7.9,7.6-18.3,11.7-29.3,11.5c-22.1-0.4-40-18.8-40-41.1V186h0v-28.5
		h12.4c4.3,0,7.7-3.4,7.7-7.6c0-4.2-3.4-7.6-7.7-7.6H9.3c-4.3,0-7.7,3.4-7.7,7.6c0,4.2,3.4,7.6,7.7,7.6h87.8v29.2h0v37.6
		c0,30.5,24.7,55.7,55.1,56.3c15,0.3,29.2-5.2,40-15.5c1.8-1.4,2.9-3.5,2.9-5.9C195,255,191.6,251.6,187.3,251.6"/>
	<path class="st1" d="M72.5,336.2C37.8,310.9,17,270.4,17,227.9v-44.2h0c0-0.1,0-0.2,0-0.4c0-4.2-3.4-7.6-7.7-7.6s-7.7,3.4-7.7,7.6
		c0,0.1,0,0.2,0,0.4h0v44.2c0,23.9,5.8,47.6,16.8,68.6c10.6,20.4,26.2,38.3,44.9,52c1.4,1,3,1.5,4.6,1.5c2.4,0,4.7-1.1,6.2-3.1
		C76.6,343.5,75.9,338.7,72.5,336.2"/>
	<path class="st1" d="M108.4,355c-4.7-1.6-9.4-3.5-14-5.7c-3.8-1.8-8.4-0.2-10.3,3.6c-1.8,3.8-0.2,8.3,3.6,10.1
		c5,2.4,10.3,4.5,15.6,6.3c0.8,0.3,1.7,0.4,2.5,0.4c3.2,0,6.2-2,7.3-5.1C114.6,360.7,112.4,356.4,108.4,355"/>
	<path class="st1" d="M152.8,0.1c-32.7,0-63.9,10.1-90.2,29.3C36.9,48.2,18.1,74,8.4,103.9c-1.3,4,0.9,8.3,5,9.6
		c4,1.3,8.4-0.9,9.7-4.9c8.8-26.9,25.6-50,48.7-66.9c23.6-17.2,51.6-26.3,81-26.3c75.1,0,136.2,60.4,136.2,134.6v5.9
		c0,4.2,3.4,7.6,7.7,7.6c4.3,0,7.7-3.4,7.7-7.6v-5.9C304.4,67.3,236.4,0.1,152.8,0.1"/>
	<path class="st1" d="M89.2,327.8c19.2,12,41.3,18.4,64.1,18.4c17.2,0,33.9-3.5,49.5-10.6c3.9-1.7,5.6-6.2,3.8-10.1
		c-1.8-3.8-6.3-5.5-10.2-3.8c-13.6,6.1-28.1,9.2-43.1,9.2c-19.8,0-39.2-5.5-55.9-16c-16.3-10.2-29.4-24.6-37.9-41.6
		c-1.9-3.8-6.5-5.3-10.3-3.5c-3.8,1.9-5.4,6.4-3.5,10.2C55.5,299.6,70.5,316.1,89.2,327.8"/>
	<path class="st1" d="M212.6,65.1c1.3,0.9,2.9,1.4,4.4,1.4c2.4,0,4.8-1.1,6.3-3.3c2.4-3.5,1.6-8.2-1.9-10.6c-5.8-4-12-7.5-18.5-10.4
		c-3.9-1.7-8.4-0.1-10.2,3.8c-1.8,3.8-0.1,8.3,3.8,10.1C202.1,58.5,207.5,61.6,212.6,65.1"/>
	<path class="st1" d="M79.8,101.3c-2.4,3.5-1.5,8.2,2.1,10.6c3.5,2.4,8.3,1.4,10.7-2c13.6-19.8,36.1-31.7,60.2-31.7
		c40,0,72.6,32.2,72.6,71.7v50.8c0,4.2,3.4,7.6,7.7,7.6c4.3,0,7.7-3.4,7.7-7.6v-50.8c0-47.9-39.5-86.9-88-86.9
		C123.5,63,96.3,77.3,79.8,101.3"/>
	<path class="st1" d="M73,190.9c-4.3,0-7.7,3.4-7.7,7.6v29.3c0,31.5,17.3,60.5,45.2,75.9c1.2,0.7,2.5,1,3.7,1c2.7,0,5.3-1.4,6.7-3.9
		c2.1-3.7,0.7-8.3-3-10.3c-23-12.7-37.3-36.7-37.3-62.7v-29.3C80.7,194.3,77.2,190.9,73,190.9"/>
	<path class="st1" d="M304.4,185.4L304.4,185.4c-0.1-4.2-3.5-7.5-7.7-7.5c-4.2,0-7.6,3.4-7.7,7.5h0v0.1l0,0l0,0v22.7
		c0,4.2,3.4,7.6,7.7,7.6c4.3,0,7.7-3.4,7.7-7.6v-22.7V185.4L304.4,185.4L304.4,185.4z"/>
	<path class="st1" d="M224.3,257.5c-3,0-5.7,1.8-6.9,4.3c-12.3,22.5-36.3,37.8-63.9,37.8c-5.8,0-11.7-0.7-17.3-2.1
		c-4.1-1-8.3,1.5-9.3,5.6c-1,4.1,1.5,8.2,5.6,9.2c6.8,1.7,13.9,2.5,21,2.5c33.5,0,62.7-18.6,77.5-45.9c0.1-0.1,0.1-0.2,0.2-0.3
		c0.1-0.2,0.2-0.4,0.4-0.7l-0.1,0c0.3-0.9,0.5-1.8,0.5-2.8C232,260.9,228.6,257.5,224.3,257.5"/>
	<path class="st1" d="M257.2,204.5c0,4.2,3.4,7.6,7.7,7.6c4.3,0,7.7-3.4,7.7-7.6h0v-54.6c0-25.3-8-49.5-23.2-69.9
		c-2.5-3.4-7.3-4.1-10.8-1.6c-3.4,2.5-4.2,7.2-1.7,10.6c13.2,17.8,20.2,38.8,20.2,60.9L257.2,204.5
		C257.2,204.4,257.2,204.5,257.2,204.5"/>
	<path class="st1" d="M44.4,131.1c3.7,0,6.7-2.5,7.5-5.9l0,0c11.2-45,52.4-78.4,101.4-78.4c5.9,0,11.7,0.5,17.5,1.4
		c4.2,0.7,8.2-2.1,8.9-6.2c0.7-4.1-2.1-8.1-6.3-8.8c-6.6-1.1-13.3-1.7-20-1.7C97,31.5,49.7,70,36.9,121.7l0,0
		c-0.1,0.6-0.2,1.2-0.2,1.8C36.7,127.7,40.1,131.1,44.4,131.1"/>
	<path class="st1" d="M41.1,239.4c4.3,0,7.7-3.4,7.7-7.6v-54.9v0c0-4.2-3.4-7.6-7.7-7.6c-4.3,0-7.7,3.4-7.7,7.6v0v54.9
		C33.4,236,36.9,239.4,41.1,239.4"/>
	<path class="st1" d="M291,261.5c-3.5,0-6.5,2.4-7.4,5.6h0l0,0c-17,55.2-69,95.4-130.4,95.4c-5.3,0-10.7-0.3-15.9-0.9
		c-4.2-0.5-8,2.5-8.5,6.7c-0.5,4.2,2.5,7.9,6.8,8.4c5.8,0.7,11.8,1,17.7,1c68.3,0,126.1-44.8,145.1-106.2c0-0.1,0.1-0.2,0.1-0.3
		c0,0,0-0.1,0-0.1l0,0c0.2-0.6,0.3-1.3,0.3-2C298.7,264.9,295.3,261.5,291,261.5"/>
	<path class="st1" d="M222.2,305.3c-3.2,2.8-3.5,7.6-0.7,10.7c1.5,1.7,3.6,2.6,5.8,2.6c1.8,0,3.6-0.6,5.1-1.9
		c15.4-13.4,26.8-30.2,33.6-48.8c0.4-0.9,0.7-2,0.7-3.1c0-4.2-3.4-7.6-7.7-7.6c-3.4,0-6.3,2.2-7.3,5.2l0,0v0
		C245.8,278.7,235.7,293.5,222.2,305.3"/>
	<path class="st1" d="M160.7,168.9c-0.1-4.2-3.5-7.5-7.7-7.5c-4.2,0-7.6,3.4-7.7,7.5h0v0.1l0,0l0,0v39.8c0,4.2,3.4,7.6,7.7,7.6
		c4.3,0,7.7-3.4,7.7-7.6V169L160.7,168.9L160.7,168.9L160.7,168.9L160.7,168.9z"/>
</g>
</svg>
