<?xml version="1.0" encoding="UTF-8"?>
<svg id="Capa_1" data-name="Capa 1" xmlns="http://www.w3.org/2000/svg" viewBox="0 0 200 200">
  <defs>
    <style>
      .cls-1 {
        opacity: .1;
      }

      .cls-1, .cls-2 {
        fill: #270089;
      }

      .cls-3 {
        fill: #f2f2f2;
        stroke: #270089;
        stroke-linecap: round;
        stroke-linejoin: round;
        stroke-width: 9.6px;
      }
    </style>
  </defs>
  <circle class="cls-1" cx="100" cy="96.51" r="94.5"/>
  <g>
    <polyline class="cls-3" points="58.6 57.2 58.6 37.41 141.4 37.41 141.4 132.67 117.99 155.61 58.6 155.61 58.6 75.69"/>
    <polygon class="cls-3" points="141.4 132.81 113.2 127.41 116.8 154.41 141.4 132.81"/>
    <g>
      <rect class="cls-2" x="71.8" y="89.01" width="25.8" height="4.8"/>
      <rect class="cls-2" x="103" y="89.01" width="25.8" height="4.8"/>
      <rect class="cls-2" x="71.8" y="98.01" width="25.8" height="4.8"/>
      <rect class="cls-2" x="103" y="98.01" width="25.8" height="4.8"/>
      <rect class="cls-2" x="71.8" y="107.01" width="25.8" height="4.8"/>
      <rect class="cls-2" x="103" y="107.01" width="25.8" height="4.8"/>
      <rect class="cls-2" x="71.8" y="116.01" width="25.8" height="4.8"/>
      <rect class="cls-2" x="103" y="116.01" width="25.8" height="4.8"/>
    </g>
    <circle class="cls-2" cx="99.7" cy="66.51" r="14.1"/>
  </g>
</svg>