<?xml version="1.0" encoding="UTF-8"?>
<svg id="Capa_1" data-name="Capa 1" xmlns="http://www.w3.org/2000/svg" viewBox="0 0 200 200">
  <defs>
    <style>
      .cls-1 {
        opacity: .1;
      }

      .cls-1, .cls-2, .cls-3 {
        fill: #270089;
      }

      .cls-2 {
        font-family: MyriadPro-Bold, 'Myriad Pro';
        font-size: 14.72px;
        font-weight: 700;
      }

      .cls-4 {
        fill: #f2f2f2;
        stroke: #270089;
        stroke-linecap: round;
        stroke-linejoin: round;
        stroke-width: 9.6px;
      }
    </style>
  </defs>
  <circle class="cls-1" cx="100" cy="96.51" r="94.5"/>
  <g>
    <polyline class="cls-4" points="58.6 57.2 58.6 37.41 141.4 37.41 141.4 132.67 117.99 155.61 58.6 155.61 58.6 75.69"/>
    <g>
      <circle class="cls-3" cx="90.1" cy="56.61" r="11.1"/>
      <rect class="cls-3" x="69.29" y="69.51" width="33.11" height="1.2"/>
      <rect class="cls-3" x="69.29" y="71.31" width="33.11" height="1.2"/>
      <rect class="cls-3" x="69.29" y="73.11" width="33.11" height="1.2"/>
      <rect class="cls-3" x="69.29" y="74.91" width="33.11" height="1.2"/>
      <rect class="cls-3" x="69.29" y="76.71" width="33.11" height="1.2"/>
      <rect class="cls-3" x="69.29" y="78.51" width="33.11" height="1.2"/>
      <text class="cls-2" transform="translate(69.03 67.96)"><tspan x="0" y="0">1</tspan></text>
    </g>
    <g>
      <circle class="cls-3" cx="119.5" cy="85.41" r="11.1"/>
      <rect class="cls-3" x="98.69" y="98.31" width="33.11" height="1.2"/>
      <rect class="cls-3" x="98.69" y="100.11" width="33.11" height="1.2"/>
      <rect class="cls-3" x="98.69" y="101.91" width="33.11" height="1.2"/>
      <rect class="cls-3" x="98.69" y="103.71" width="33.11" height="1.2"/>
      <rect class="cls-3" x="98.69" y="105.51" width="33.11" height="1.2"/>
      <rect class="cls-3" x="98.69" y="107.31" width="33.11" height="1.2"/>
      <text class="cls-2" transform="translate(98.43 96.76)"><tspan x="0" y="0">2</tspan></text>
    </g>
    <g>
      <circle class="cls-3" cx="89.5" cy="122.61" r="11.1"/>
      <rect class="cls-3" x="68.69" y="135.51" width="33.11" height="1.2"/>
      <rect class="cls-3" x="68.69" y="137.31" width="33.11" height="1.2"/>
      <rect class="cls-3" x="68.69" y="139.11" width="33.11" height="1.2"/>
      <rect class="cls-3" x="68.69" y="140.91" width="33.11" height="1.2"/>
      <rect class="cls-3" x="68.69" y="142.71" width="33.11" height="1.2"/>
      <rect class="cls-3" x="68.69" y="144.51" width="33.11" height="1.2"/>
      <text class="cls-2" transform="translate(68.43 133.96)"><tspan x="0" y="0">3</tspan></text>
    </g>
    <polygon class="cls-4" points="141.4 132.81 113.2 127.41 116.8 154.41 141.4 132.81"/>
  </g>
</svg>