<?xml version="1.0" encoding="UTF-8"?>
<svg id="Layer_1" data-name="Layer 1" xmlns="http://www.w3.org/2000/svg" viewBox="0 0 494.11 184">
  <defs>
    <style>
      .cls-1 {
        letter-spacing: 0em;
      }

      .cls-2 {
        opacity: .1;
      }

      .cls-2, .cls-3, .cls-4 {
        fill: #270089;
      }

      .cls-5 {
        letter-spacing: 0em;
      }

      .cls-6 {
        fill: #f1f1f1;
      }

      .cls-7 {
        fill: #c1c5c8;
      }

      .cls-4 {
        font-family: Montserrat-SemiBold, Montserrat;
        font-size: 50.73px;
        font-weight: 600;
      }

      .cls-8 {
        letter-spacing: -.01em;
      }

      .cls-9 {
        stroke-linecap: round;
        stroke-width: 2.74px;
      }

      .cls-9, .cls-10 {
        fill: none;
        stroke: #270089;
        stroke-miterlimit: 10;
      }

      .cls-11 {
        letter-spacing: 0em;
      }

      .cls-12 {
        letter-spacing: 0em;
      }

      .cls-13 {
        letter-spacing: 0em;
      }

      .cls-10 {
        stroke-width: 2.74px;
      }
    </style>
  </defs>
  <circle class="cls-2" cx="401.17" cy="92" r="80.88"/>
  <circle class="cls-6" cx="401.16" cy="92.03" r="58.82"/>
  <text class="cls-4" transform="translate(31.51 79.77)"><tspan class="cls-1" x="0" y="0">Ir a lí</tspan><tspan class="cls-5" x="126.68" y="0">n</tspan><tspan class="cls-8" x="161.83" y="0">e</tspan><tspan class="cls-13" x="192.78" y="0">as</tspan><tspan class="cls-13" x="-19.46" y="54.13">p</tspan><tspan class="cls-11" x="15.5" y="54.13">r</tspan><tspan class="cls-1" x="36.7" y="54.13">i</tspan><tspan class="cls-5" x="51.52" y="54.13">n</tspan><tspan class="cls-1" x="86.67" y="54.13">ci</tspan><tspan class="cls-12" x="131.12" y="54.13">p</tspan><tspan class="cls-13" x="165.72" y="54.13">ales</tspan></text>
  <g>
    <path class="cls-10" d="m424.14,92.16h11.87v11.97h-17.25v-6.59c0-2.97,2.41-5.38,5.38-5.38Z"/>
    <path class="cls-10" d="m424.14,111.47h11.87v11.97h-17.25v-6.59c0-2.97,2.41-5.38,5.38-5.38Z"/>
    <path class="cls-10" d="m374.64,92.16h11.87v11.97h-17.25v-6.59c0-2.97,2.41-5.38,5.38-5.38Z"/>
    <path class="cls-10" d="m399.33,92.16h11.87v11.97h-17.25v-6.59c0-2.97,2.41-5.38,5.38-5.38Z"/>
    <path class="cls-10" d="m374.64,111.47h11.87v11.97h-17.25v-6.59c0-2.97,2.41-5.38,5.38-5.38Z"/>
    <path class="cls-9" d="m402.86,123.45h-8.91v-6.39c0-3.08,2.5-5.58,5.58-5.58h11.67v11.97h-2.17"/>
    <g>
      <g>
        <path class="cls-7" d="m391.89,67.65h-5.58s-.03,0-.04,0c0,0,0,.02,0,.04v1s0,.04,0,.05c0,0,.01,0,.03,0h2.15v6.34s0,.04,0,.05c0,0,.01,0,.03,0h1.15s.03,0,.03,0c0,0,0-.02,0-.05v-6.34h2.2s.04,0,.05,0c0,0,0-.02,0-.04v-1s0-.03,0-.03c0,0-.02,0-.05,0Z"/>
        <path class="cls-7" d="m397.96,74.04s-.03-.02-.06-.02h-3.27v-6.3c0-.08-.02-.08-.07-.08h-1.08s-.06.01-.06.02c-.01.02-.02.03-.02.05v7.34c0,.07,0,.07.07.07h4.43c.08,0,.08-.02.08-.07v-.96s-.01-.06-.02-.06Z"/>
      </g>
      <path class="cls-3" d="m404.26,67.64c-2.09,0-3.79,1.68-3.79,3.74s1.7,3.74,3.79,3.74c1.13,0,2.14-.49,2.84-1.27v1.27h.95v-3.74c0-2.06-1.7-3.74-3.79-3.74Zm0,6.55c-1.57,0-2.84-1.26-2.84-2.8s1.27-2.8,2.84-2.8,2.84,1.26,2.84,2.8-1.27,2.8-2.84,2.8Z"/>
      <path class="cls-3" d="m413.3,67.64c-2.09,0-3.79,1.68-3.79,3.74h0v6.78h.95v-4.3c.69.78,1.71,1.27,2.84,1.27,2.09,0,3.79-1.68,3.79-3.74s-1.7-3.74-3.79-3.74Zm0,6.55c-1.57,0-2.84-1.26-2.84-2.8s1.27-2.8,2.84-2.8,2.84,1.26,2.84,2.8-1.27,2.8-2.84,2.8Z"/>
      <path class="cls-3" d="m422.14,67.64c-2.09,0-3.79,1.68-3.79,3.74h0v6.78h.95v-4.3c.69.78,1.71,1.27,2.84,1.27,2.09,0,3.79-1.68,3.79-3.74s-1.7-3.74-3.79-3.74Zm0,6.55c-1.57,0-2.84-1.26-2.84-2.8s1.27-2.8,2.84-2.8,2.84,1.26,2.84,2.8-1.27,2.8-2.84,2.8Z"/>
      <path class="cls-3" d="m432.26,70.92h-2.82c-.65,0-1.18-.52-1.18-1.17s.53-1.17,1.18-1.17h4.05v-.94h-4.05c-1.18,0-2.13.94-2.13,2.11s.96,2.11,2.13,2.11h2.82c.65,0,1.18.52,1.18,1.17s-.53,1.17-1.18,1.17h-4.48v.94h4.48c1.18,0,2.13-.94,2.13-2.11s-.96-2.11-2.13-2.11Z"/>
      <g>
        <path class="cls-3" d="m383.33,73.52h-5.03v-4.33c0-1.75-1.42-3.2-3.16-3.23-.86-.02-1.67.3-2.29.89-.1.08-.16.2-.16.34,0,.24.2.44.44.44.12,0,.23-.05.31-.13h0c.45-.44,1.05-.67,1.68-.66,1.27.02,2.3,1.08,2.3,2.36v4.77c0,.24.2.44.44.44,0,0,0,0,0,0s0,0,0,0h5.47c.24,0,.44-.2.44-.44s-.2-.44-.44-.44Z"/>
        <path class="cls-3" d="m377.05,74.98c-.12,0-.23.05-.31.13h0c-.45.44-1.05.67-1.68.66-1.27-.02-2.3-1.08-2.3-2.36v-2.2h0v-1.64h.71c.24,0,.44-.2.44-.44s-.2-.44-.44-.44h-6.63c-.24,0-.44.2-.44.44s.2.44.44.44h5.04v1.68h0v2.16c0,1.75,1.42,3.2,3.16,3.23.86.02,1.67-.3,2.29-.89.1-.08.16-.2.16-.34,0-.24-.2-.44-.44-.44Z"/>
        <g>
          <path class="cls-7" d="m370.46,79.84c-1.99-1.45-3.18-3.78-3.18-6.22v-2.54h0s0-.01,0-.02c0-.24-.2-.44-.44-.44s-.44.2-.44.44c0,0,0,.01,0,.02h0v2.54c0,1.37.33,2.73.97,3.94.61,1.17,1.5,2.2,2.58,2.98.08.06.17.08.26.08.14,0,.27-.06.36-.18.14-.19.1-.47-.09-.61Z"/>
          <path class="cls-7" d="m372.53,80.92c-.27-.09-.54-.2-.8-.33-.22-.1-.48-.01-.59.2-.11.22-.01.48.21.58.29.14.59.26.89.36.05.02.1.02.15.02.18,0,.35-.11.42-.29.08-.23-.04-.48-.27-.56Z"/>
          <path class="cls-7" d="m375.07,60.55c-1.88,0-3.67.58-5.17,1.68-1.48,1.08-2.55,2.56-3.11,4.28-.07.23.05.48.29.55.23.07.48-.05.56-.28.5-1.54,1.47-2.87,2.8-3.84,1.35-.99,2.96-1.51,4.65-1.51,4.31,0,7.82,3.46,7.82,7.72v.34c0,.24.2.44.44.44s.44-.2.44-.44v-.34c0-4.74-3.9-8.59-8.7-8.59Z"/>
          <path class="cls-7" d="m371.42,79.36c1.1.69,2.37,1.06,3.68,1.06.99,0,1.94-.2,2.84-.61.22-.1.32-.36.22-.58-.1-.22-.36-.32-.58-.22-.78.35-1.61.53-2.47.53-1.14,0-2.25-.32-3.21-.92-.93-.59-1.68-1.41-2.17-2.39-.11-.22-.37-.3-.59-.2-.22.11-.31.37-.2.58.56,1.12,1.42,2.07,2.49,2.74Z"/>
          <path class="cls-7" d="m378.5,64.28c.08.05.16.08.25.08.14,0,.28-.07.36-.19.14-.2.09-.47-.11-.61-.33-.23-.69-.43-1.06-.6-.22-.1-.48,0-.59.22-.1.22,0,.48.22.58.32.15.63.32.92.52Z"/>
          <path class="cls-7" d="m370.89,66.36c-.14.2-.08.47.12.61.2.13.48.08.61-.12.78-1.14,2.07-1.82,3.45-1.82,2.3,0,4.17,1.85,4.17,4.11v2.91c0,.24.2.44.44.44s.44-.2.44-.44v-2.91c0-2.75-2.27-4.99-5.05-4.99-1.68,0-3.24.82-4.19,2.2Z"/>
          <path class="cls-7" d="m370.49,71.5c-.24,0-.44.2-.44.44v1.68c0,1.8.99,3.47,2.59,4.36.07.04.14.06.21.06.15,0,.31-.08.39-.22.12-.21.04-.48-.17-.59-1.32-.73-2.14-2.11-2.14-3.6v-1.68c0-.24-.2-.44-.44-.44Z"/>
          <path class="cls-7" d="m383.77,71.18h0c0-.24-.2-.43-.44-.43s-.44.19-.44.43h0s0,0,0,0h0v1.31c0,.24.2.44.44.44s.44-.2.44-.44v-1.31h0s0,0,0,0h0Z"/>
          <path class="cls-7" d="m379.18,75.32c-.17,0-.33.1-.4.25-.7,1.29-2.08,2.17-3.67,2.17-.34,0-.67-.04-.99-.12-.24-.06-.48.09-.53.32-.06.23.09.47.32.53.39.09.8.14,1.2.14,1.92,0,3.6-1.07,4.45-2.64,0,0,0-.01.01-.02,0-.01.01-.03.02-.04h0c.02-.05.03-.1.03-.16,0-.24-.2-.44-.44-.44Z"/>
          <path class="cls-7" d="m381.06,72.28c0,.24.2.44.44.44s.44-.2.44-.44h0v-3.13c0-1.45-.46-2.84-1.33-4.01-.14-.19-.42-.24-.62-.09-.2.14-.24.42-.09.61.76,1.02,1.16,2.23,1.16,3.49v3.13s0,0,0,0Z"/>
          <path class="cls-7" d="m368.85,68.07c.21,0,.39-.15.43-.34h0c.65-2.58,3.01-4.5,5.82-4.5.34,0,.67.03,1,.08.24.04.47-.12.51-.36.04-.24-.12-.46-.36-.5-.38-.06-.76-.09-1.15-.09-3.23,0-5.94,2.21-6.68,5.17h0s-.01.07-.01.1c0,.24.2.44.44.44Z"/>
          <path class="cls-7" d="m368.67,74.29c.24,0,.44-.2.44-.44v-3.15h0c0-.24-.2-.44-.44-.44s-.44.2-.44.44h0v3.15c0,.24.2.44.44.44Z"/>
          <path class="cls-7" d="m383.01,75.55c-.2,0-.37.14-.43.32h0s0,0,0,0c-.98,3.17-3.96,5.48-7.48,5.48-.31,0-.61-.02-.91-.05-.24-.03-.46.14-.49.38-.03.24.15.46.39.48.33.04.68.06,1.02.06,3.92,0,7.24-2.57,8.32-6.09,0,0,0-.01,0-.02,0,0,0,0,0,0h0s.02-.08.02-.12c0-.24-.2-.44-.44-.44Z"/>
          <path class="cls-7" d="m379.06,78.06c-.18.16-.2.43-.04.62.09.1.21.15.33.15.1,0,.21-.04.29-.11.88-.77,1.54-1.73,1.93-2.8.02-.05.04-.11.04-.18,0-.24-.2-.44-.44-.44-.19,0-.36.12-.42.3h0c-.34.94-.91,1.79-1.69,2.46Z"/>
          <path class="cls-7" d="m375.53,70.24c0-.24-.2-.43-.44-.43s-.44.19-.44.43h0s0,0,0,0h0v2.29c0,.24.2.44.44.44s.44-.2.44-.44v-2.29h0s0,0,0,0h0s0,0,0,0Z"/>
        </g>
      </g>
      <g>
        <path class="cls-3" d="m387.45,80.15h.32v1.4h-.32v-1.4Z"/>
        <path class="cls-3" d="m388.06,80.15h.32v1.13h.7v.26h-1.02v-1.4Z"/>
        <path class="cls-3" d="m389.18,80.94v-.78h.32v.77c0,.27.12.38.31.38s.31-.11.31-.38v-.77h.32v.78c0,.41-.24.64-.63.64s-.63-.23-.63-.64Z"/>
        <path class="cls-3" d="m391.99,81.55v-.84s-.41.69-.41.69h-.15l-.41-.67v.82h-.3v-1.4h.27l.52.87.51-.87h.27v1.4s-.3,0-.3,0Z"/>
        <path class="cls-3" d="m392.58,80.15h.32v1.4h-.32v-1.4Z"/>
        <path class="cls-3" d="m394.46,80.15v1.4h-.27l-.7-.85v.85h-.32v-1.4h.27l.69.85v-.85h.32Z"/>
        <path class="cls-3" d="m395.66,81.25h-.65l-.12.3h-.33l.62-1.4h.32l.62,1.4h-.34l-.12-.3Zm-.1-.25l-.22-.53-.22.53h.44Z"/>
        <path class="cls-3" d="m397.49,81.55v-.84s-.41.69-.41.69h-.15l-.41-.67v.82h-.3v-1.4h.27l.52.87.52-.87h.27v1.4s-.3,0-.3,0Z"/>
        <path class="cls-3" d="m397.99,80.85c0-.42.32-.72.76-.72s.76.31.76.72-.33.72-.76.72-.76-.31-.76-.72Zm1.2,0c0-.27-.19-.45-.44-.45s-.44.18-.44.45.19.45.44.45.44-.18.44-.45Z"/>
        <path class="cls-3" d="m399.6,81.41l.11-.24c.12.09.29.15.46.15.19,0,.27-.06.27-.15,0-.26-.81-.08-.81-.6,0-.24.19-.44.59-.44.18,0,.36.04.48.12l-.1.25c-.13-.07-.26-.11-.39-.11-.19,0-.27.07-.27.16,0,.26.81.08.81.59,0,.23-.19.43-.59.43-.22,0-.45-.07-.57-.16Z"/>
        <path class="cls-3" d="m402.12,81.05v.49h-.32v-.5l-.54-.9h.34l.37.62.37-.62h.32l-.54.9Z"/>
        <path class="cls-3" d="m403.27,80.15h.63c.46,0,.77.28.77.7s-.31.7-.77.7h-.63v-1.4Zm.62,1.13c.28,0,.46-.17.46-.43s-.18-.43-.46-.43h-.3v.87h.3Z"/>
        <path class="cls-3" d="m404.87,80.15h.32v1.4h-.32v-1.4Z"/>
        <path class="cls-3" d="m406.42,80.83h.3v.57c-.15.12-.37.18-.56.18-.44,0-.76-.3-.76-.72s.32-.72.77-.72c.25,0,.45.08.58.24l-.21.19c-.1-.11-.22-.16-.36-.16-.27,0-.46.18-.46.45s.19.45.45.45c.09,0,.17-.02.25-.06v-.41Z"/>
        <path class="cls-3" d="m406.96,80.15h.32v1.4h-.32v-1.4Z"/>
        <path class="cls-3" d="m407.86,80.42h-.45v-.26h1.22v.26h-.45v1.13h-.32v-1.13Z"/>
        <path class="cls-3" d="m409.6,81.25h-.65l-.12.3h-.33l.62-1.4h.32l.62,1.4h-.34l-.12-.3Zm-.1-.25l-.22-.53-.22.53h.44Z"/>
        <path class="cls-3" d="m410.16,80.15h.32v1.13h.7v.26h-1.02v-1.4Z"/>
        <path class="cls-3" d="m411.32,80.15h.32v1.4h-.32v-1.4Z"/>
        <path class="cls-3" d="m413.05,81.29v.26h-1.22v-.21l.77-.92h-.75v-.26h1.18v.21l-.76.92h.79Z"/>
        <path class="cls-3" d="m414.13,81.25h-.65l-.12.3h-.33l.62-1.4h.32l.62,1.4h-.34l-.12-.3Zm-.1-.25l-.22-.53-.22.53h.44Z"/>
        <path class="cls-3" d="m415.96,81.55v-.84s-.41.69-.41.69h-.15l-.41-.67v.82h-.3v-1.4h.27l.52.87.51-.87h.27v1.4s-.3,0-.3,0Z"/>
        <path class="cls-3" d="m416.46,80.85c0-.42.32-.72.76-.72s.76.31.76.72-.33.72-.76.72-.76-.31-.76-.72Zm1.2,0c0-.27-.19-.45-.44-.45s-.44.18-.44.45.19.45.44.45.44-.18.44-.45Z"/>
        <path class="cls-3" d="m418.07,81.41l.11-.24c.12.09.29.15.46.15.19,0,.27-.06.27-.15,0-.26-.81-.08-.81-.6,0-.24.19-.44.59-.44.18,0,.36.04.49.12l-.1.25c-.13-.07-.26-.11-.39-.11-.19,0-.27.07-.27.16,0,.26.81.08.81.59,0,.23-.19.43-.59.43-.22,0-.45-.07-.57-.16Z"/>
        <path class="cls-3" d="m420.21,80.42h-.45v-.26h1.22v.26h-.45v1.13h-.32v-1.13Z"/>
        <path class="cls-3" d="m421.07,80.94v-.78h.32v.77c0,.27.12.38.31.38s.31-.11.31-.38v-.77h.32v.78c0,.41-.24.64-.63.64s-.63-.23-.63-.64Z"/>
        <path class="cls-3" d="m422.49,81.41l.11-.24c.12.09.29.15.46.15.19,0,.27-.06.27-.15,0-.26-.81-.08-.81-.6,0-.24.19-.44.59-.44.18,0,.36.04.48.12l-.1.25c-.13-.07-.26-.11-.39-.11-.19,0-.27.07-.27.16,0,.26.81.08.81.59,0,.23-.19.43-.59.43-.22,0-.45-.07-.57-.16Z"/>
        <path class="cls-3" d="m425.43,81.29v.26h-1.08v-1.4h1.06v.26h-.73v.3h.65v.25h-.65v.32h.76Z"/>
        <path class="cls-3" d="m425.52,81.41l.11-.24c.12.09.29.15.46.15.19,0,.27-.06.27-.15,0-.26-.81-.08-.81-.6,0-.24.19-.44.59-.44.18,0,.36.04.48.12l-.1.25c-.13-.07-.26-.11-.39-.11-.19,0-.27.07-.27.16,0,.26.81.08.81.59,0,.23-.19.43-.59.43-.22,0-.45-.07-.57-.16Z"/>
        <path class="cls-3" d="m428.07,80.66c0,.31-.23.5-.61.5h-.28v.39h-.32v-1.4h.6c.37,0,.61.19.61.51Zm-.33,0c0-.15-.1-.24-.3-.24h-.26v.48h.26c.2,0,.3-.09.3-.24Z"/>
        <path class="cls-3" d="m429.1,81.25h-.65l-.12.3h-.33l.62-1.4h.32l.62,1.4h-.34l-.12-.3Zm-.1-.25l-.22-.53-.22.53h.44Z"/>
        <path class="cls-3" d="m429.55,80.85c0-.42.32-.72.76-.72.24,0,.44.09.57.25l-.21.19c-.09-.11-.21-.16-.35-.16-.26,0-.45.18-.45.45s.19.45.45.45c.14,0,.26-.06.35-.17l.21.19c-.13.16-.33.25-.58.25-.43,0-.76-.3-.76-.72Z"/>
        <path class="cls-3" d="m431.05,80.15h.32v1.4h-.32v-1.4Z"/>
        <path class="cls-3" d="m431.57,80.85c0-.42.32-.72.76-.72s.76.31.76.72-.33.72-.76.72-.76-.31-.76-.72Zm1.2,0c0-.27-.19-.45-.44-.45s-.44.18-.44.45.19.45.44.45.44-.18.44-.45Z"/>
        <path class="cls-3" d="m433.18,81.41l.11-.24c.12.09.29.15.46.15.19,0,.27-.06.27-.15,0-.26-.81-.08-.81-.6,0-.24.19-.44.59-.44.18,0,.36.04.49.12l-.1.25c-.13-.07-.26-.11-.39-.11-.19,0-.27.07-.27.16,0,.26.81.08.81.59,0,.23-.19.43-.59.43-.22,0-.45-.07-.57-.16Z"/>
      </g>
      <g>
        <path class="cls-3" d="m436.05,67.56c-.5,0-.91.41-.91.91s.41.91.91.91.91-.41.91-.91-.41-.91-.91-.91Zm.74.91c0,.41-.33.74-.74.74s-.74-.33-.74-.74.33-.74.74-.74.74.33.74.74Z"/>
        <path class="cls-3" d="m435.7,68.89v-.89h.38c.09,0,.16,0,.21.02s.08.04.1.09.04.09.04.14c0,.07-.02.12-.06.16-.04.04-.1.07-.18.08.04.02.07.05.1.07s.06.08.1.14l.11.17h-.21l-.13-.19c-.05-.07-.08-.11-.09-.13-.02-.02-.03-.03-.05-.04-.02,0-.05-.01-.09-.01h-.04v.37h-.18Zm.18-.51h.13c.09,0,.14,0,.16-.01.02,0,.04-.02.05-.04.01-.02.02-.04.02-.07,0-.03,0-.05-.02-.07-.02-.02-.04-.03-.07-.03-.01,0-.06,0-.13,0h-.14v.23Z"/>
      </g>
    </g>
  </g>
</svg>