<?xml version="1.0" encoding="utf-8"?>
<!-- Generator: Adobe Illustrator 19.0.0, SVG Export Plug-In . SVG Version: 6.00 Build 0)  -->
<svg version="1.1" id="Layer_1" xmlns="http://www.w3.org/2000/svg" xmlns:xlink="http://www.w3.org/1999/xlink" x="0px" y="0px"
	 viewBox="0 0 524.4 168.1" style="enable-background:new 0 0 524.4 168.1;" xml:space="preserve">
<style type="text/css">
	.st0{clip-path:url(#SVGID_2_);fill:#C3C6C8;}
	.st1{clip-path:url(#SVGID_2_);fill:#290088;}
</style>
<g>
	<defs>
		<rect id="SVGID_1_" x="-133.6" y="-221.5" width="792" height="612"/>
	</defs>
	<clipPath id="SVGID_2_">
		<use xlink:href="#SVGID_1_"  style="overflow:visible;"/>
	</clipPath>
	<path class="st0" d="M197,55.4H154c-0.2,0-0.2,0-0.3,0c0,0,0,0.1,0,0.3v7.7c0,0.2,0,0.3,0,0.4c0,0,0.1,0,0.3,0h15.3h1.2V65v47.5
		c0,0.2,0,0.3,0,0.4c0,0,0.1,0,0.3,0h8.8c0.1,0,0.2,0,0.3,0c0,0,0-0.2,0-0.4V65v-1.2h1.2H197c0.2,0,0.3,0,0.3,0c0,0,0-0.1,0-0.3
		v-7.7c0-0.1,0-0.2,0-0.3C197.3,55.4,197.2,55.4,197,55.4"/>
	<path class="st0" d="M243.7,104.5c-0.1-0.1-0.2-0.2-0.4-0.2h-23.9h-1.2v-1.2V55.9c0-0.6-0.2-0.6-0.6-0.6h-8.3
		c-0.4,0-0.4,0.1-0.5,0.1c-0.1,0.1-0.2,0.2-0.2,0.4v56.5c0,0.5,0,0.6,0.6,0.6h34.1c0.6,0,0.6-0.2,0.6-0.6v-7.4
		C243.8,104.6,243.7,104.5,243.7,104.5"/>
	<path class="st1" d="M292.1,55.3c-16.1,0-29.1,12.9-29.1,28.8s13.1,28.8,29.1,28.8c8.7,0,16.5-3.8,21.8-9.8v9.8h7.3V84.1
		C321.3,68.2,308.2,55.3,292.1,55.3 M292.1,105.6c-12,0-21.8-9.7-21.8-21.6s9.8-21.6,21.8-21.6c12,0,21.8,9.7,21.8,21.6
		S304.2,105.6,292.1,105.6"/>
	<path class="st1" d="M361.6,55.3c-16.1,0-29.1,12.9-29.1,28.8v52.1h7.3v-33.1c5.3,6,13.1,9.8,21.8,9.8c16.1,0,29.1-12.9,29.1-28.8
		S377.7,55.3,361.6,55.3 M361.6,105.6c-12,0-21.8-9.7-21.8-21.6s9.8-21.6,21.8-21.6c12,0,21.8,9.7,21.8,21.6
		S373.7,105.6,361.6,105.6"/>
	<path class="st1" d="M429.6,55.3c-16.1,0-29.1,12.9-29.1,28.8v52.1h7.3v-33.1c5.3,6,13.1,9.8,21.8,9.8c16.1,0,29.1-12.9,29.1-28.8
		S445.7,55.3,429.6,55.3 M429.6,105.6c-12,0-21.8-9.7-21.8-21.6s9.8-21.6,21.8-21.6c12,0,21.8,9.7,21.8,21.6
		S441.6,105.6,429.6,105.6"/>
	<path class="st1" d="M507.4,80.5h-21.7c-5,0-9.1-4-9.1-9c0-5,4.1-9,9.1-9h31.1v-7.2h-31.1c-9,0-16.4,7.3-16.4,16.2
		c0,8.9,7.4,16.2,16.4,16.2h21.7c5,0,9.1,4,9.1,9s-4.1,9-9.1,9H473v7.2h34.4c9,0,16.4-7.3,16.4-16.2
		C523.8,87.7,516.5,80.5,507.4,80.5"/>
	<path class="st1" d="M131.2,100.5H92.4V67.2c0-13.4-10.9-24.6-24.3-24.8c-6.6-0.1-12.9,2.3-17.6,6.8c-0.8,0.6-1.3,1.6-1.3,2.6
		c0,1.9,1.5,3.4,3.4,3.4c0.9,0,1.8-0.4,2.4-1l0,0c3.5-3.4,8.1-5.2,12.9-5.1c9.7,0.2,17.6,8.3,17.6,18.1v36.6c0,1.9,1.5,3.4,3.4,3.4
		c0,0,0,0,0,0s0,0,0,0h42.1c1.9,0,3.4-1.5,3.4-3.4S133,100.5,131.2,100.5"/>
	<path class="st1" d="M82.9,111.7c-0.9,0-1.8,0.4-2.4,1l0,0c-3.5,3.4-8.1,5.2-12.9,5.1c-9.7-0.2-17.6-8.3-17.6-18.1V82.8h0V70.2h5.5
		c1.9,0,3.4-1.5,3.4-3.4c0-1.9-1.5-3.4-3.4-3.4h-51c-1.9,0-3.4,1.5-3.4,3.4c0,1.9,1.5,3.4,3.4,3.4h38.7v12.9v16.6
		c0,13.4,10.9,24.6,24.3,24.8c6.6,0.1,12.9-2.3,17.6-6.8c0.8-0.6,1.3-1.6,1.3-2.6C86.3,113.2,84.8,111.7,82.9,111.7"/>
	<path class="st0" d="M32.2,149.1c-15.3-11.2-24.5-29-24.5-47.8V81.8h0c0-0.1,0-0.1,0-0.2c0-1.9-1.5-3.4-3.4-3.4
		c-1.9,0-3.4,1.5-3.4,3.4c0,0.1,0,0.1,0,0.2h0v19.5c0,10.5,2.6,21,7.4,30.3c4.7,9,11.6,16.9,19.8,22.9c0.6,0.4,1.3,0.7,2,0.7
		c1,0,2.1-0.5,2.7-1.4C34.1,152.3,33.7,150.2,32.2,149.1"/>
	<path class="st0" d="M48.1,157.4c-2.1-0.7-4.2-1.6-6.2-2.5c-1.7-0.8-3.7-0.1-4.5,1.6c-0.8,1.7-0.1,3.7,1.6,4.5
		c2.2,1.1,4.5,2,6.9,2.8c0.4,0.1,0.7,0.2,1.1,0.2c1.4,0,2.7-0.9,3.2-2.3C50.8,159.9,49.8,158,48.1,157.4"/>
	<path class="st0" d="M67.6,0.8c-14.4,0-28.2,4.5-39.8,12.9C16.5,22,8.2,33.4,3.9,46.6c-0.6,1.8,0.4,3.7,2.2,4.2
		c1.8,0.6,3.7-0.4,4.3-2.2c3.9-11.9,11.3-22.1,21.5-29.5C42.3,11.5,54.7,7.5,67.6,7.5c33.1,0,60.1,26.6,60.1,59.4v2.6
		c0,1.9,1.5,3.4,3.4,3.4c1.9,0,3.4-1.5,3.4-3.4v-2.6C134.5,30.4,104.5,0.8,67.6,0.8"/>
	<path class="st0" d="M39.6,145.4c8.5,5.3,18.2,8.1,28.3,8.1c7.6,0,14.9-1.6,21.8-4.7c1.7-0.8,2.5-2.8,1.7-4.4
		c-0.8-1.7-2.8-2.4-4.5-1.7c-6,2.7-12.4,4.1-19,4.1c-8.8,0-17.3-2.4-24.6-7.1c-7.2-4.5-13-10.9-16.7-18.4c-0.8-1.7-2.9-2.3-4.6-1.5
		c-1.7,0.8-2.4,2.8-1.5,4.5C24.7,132.9,31.3,140.2,39.6,145.4"/>
	<path class="st0" d="M94,29.4c0.6,0.4,1.3,0.6,1.9,0.6c1.1,0,2.1-0.5,2.8-1.4c1.1-1.5,0.7-3.6-0.9-4.7c-2.6-1.8-5.3-3.3-8.2-4.6
		c-1.7-0.8-3.7,0-4.5,1.7c-0.8,1.7,0,3.7,1.7,4.4C89.4,26.6,91.8,27.9,94,29.4"/>
	<path class="st0" d="M35.5,45.4c-1.1,1.5-0.6,3.6,0.9,4.7c1.6,1,3.7,0.6,4.7-0.9c6-8.7,15.9-14,26.6-14c17.7,0,32,14.2,32,31.6
		v22.4c0,1.9,1.5,3.4,3.4,3.4c1.9,0,3.4-1.5,3.4-3.4V66.9c0-21.1-17.4-38.4-38.8-38.4C54.7,28.5,42.7,34.8,35.5,45.4"/>
	<path class="st0" d="M32.4,85c-1.9,0-3.4,1.5-3.4,3.4v12.9c0,13.9,7.6,26.7,20,33.5c0.5,0.3,1.1,0.4,1.7,0.4c1.2,0,2.3-0.6,3-1.7
		c0.9-1.6,0.3-3.7-1.3-4.6c-10.2-5.6-16.5-16.2-16.5-27.7V88.3C35.8,86.5,34.3,85,32.4,85"/>
	<path class="st0" d="M134.5,82.5L134.5,82.5c0-1.8-1.5-3.3-3.4-3.3s-3.4,1.5-3.4,3.3h0v0v0v0v10c0,1.9,1.5,3.4,3.4,3.4
		c1.9,0,3.4-1.5,3.4-3.4V82.5L134.5,82.5L134.5,82.5L134.5,82.5z"/>
	<path class="st0" d="M99.2,114.3c-1.3,0-2.5,0.8-3.1,1.9c-5.4,9.9-16,16.7-28.2,16.7c-2.6,0-5.2-0.3-7.6-0.9
		c-1.8-0.4-3.7,0.7-4.1,2.5c-0.4,1.8,0.7,3.6,2.5,4.1c3,0.7,6.1,1.1,9.3,1.1c14.8,0,27.7-8.2,34.2-20.3c0,0,0.1-0.1,0.1-0.2
		c0.1-0.1,0.1-0.2,0.2-0.3l0,0c0.1-0.4,0.2-0.8,0.2-1.2C102.6,115.8,101.1,114.3,99.2,114.3"/>
	<path class="st0" d="M113.7,90.9c0,1.9,1.5,3.4,3.4,3.4c1.9,0,3.4-1.5,3.4-3.4V66.9c0-11.2-3.5-21.8-10.2-30.8
		c-1.1-1.5-3.2-1.8-4.7-0.7c-1.5,1.1-1.8,3.2-0.7,4.7c5.8,7.8,8.9,17.1,8.9,26.9V90.9C113.7,90.9,113.7,90.9,113.7,90.9"/>
	<path class="st0" d="M19.8,58.6c1.6,0,3-1.1,3.3-2.6h0c5-19.8,23.1-34.6,44.7-34.6c2.6,0,5.2,0.2,7.7,0.6c1.9,0.3,3.6-0.9,3.9-2.7
		c0.3-1.8-0.9-3.6-2.8-3.9c-2.9-0.5-5.9-0.7-8.8-0.7c-24.8,0-45.7,17-51.4,39.8l0,0c-0.1,0.3-0.1,0.5-0.1,0.8
		C16.4,57.1,17.9,58.6,19.8,58.6"/>
	<path class="st0" d="M18.4,106.4c1.9,0,3.4-1.5,3.4-3.4V78.8v0c0-1.9-1.5-3.4-3.4-3.4c-1.9,0-3.4,1.5-3.4,3.4v0V103
		C15,104.9,16.5,106.4,18.4,106.4"/>
	<path class="st0" d="M128.7,116.1c-1.6,0-2.9,1-3.3,2.5v0c-7.5,24.3-30.4,42.1-57.5,42.1c-2.3,0-4.7-0.1-7-0.4
		c-1.9-0.2-3.6,1.1-3.8,2.9c-0.2,1.8,1.1,3.5,3,3.7c2.6,0.3,5.2,0.4,7.8,0.4c30.1,0,55.6-19.8,64-46.8c0,0,0-0.1,0-0.1c0,0,0,0,0,0
		l0,0c0.1-0.3,0.1-0.6,0.1-0.9C132.1,117.6,130.5,116.1,128.7,116.1"/>
	<path class="st0" d="M98.3,135.4c-1.4,1.2-1.5,3.3-0.3,4.7c0.7,0.8,1.6,1.1,2.6,1.1c0.8,0,1.6-0.3,2.2-0.8
		c6.8-5.9,11.8-13.3,14.8-21.5c0.2-0.4,0.3-0.9,0.3-1.4c0-1.9-1.5-3.4-3.4-3.4c-1.5,0-2.8,1-3.2,2.3l0,0v0
		C108.7,123.7,104.2,130.2,98.3,135.4"/>
	<path class="st0" d="M71.2,75.2c0-1.8-1.5-3.3-3.4-3.3s-3.4,1.5-3.4,3.3h0v0v0v0v17.6c0,1.9,1.5,3.4,3.4,3.4c1.9,0,3.4-1.5,3.4-3.4
		L71.2,75.2L71.2,75.2L71.2,75.2L71.2,75.2L71.2,75.2z"/>
	<rect x="162.8" y="151.5" class="st1" width="2.5" height="10.7"/>
	<polygon class="st1" points="167.5,151.5 170,151.5 170,160.2 175.4,160.2 175.4,162.2 167.5,162.2 	"/>
	<path class="st1" d="M176.2,157.5v-6h2.5v5.9c0,2,0.9,2.9,2.4,2.9c1.5,0,2.4-0.8,2.4-2.9v-5.9h2.5v6c0,3.2-1.8,4.9-4.9,4.9
		S176.2,160.7,176.2,157.5"/>
	<polygon class="st1" points="197.7,162.2 197.7,155.8 194.6,161.1 193.4,161.1 190.3,155.9 190.3,162.2 188,162.2 188,151.5 
		190,151.5 194,158.2 198,151.5 200,151.5 200.1,162.2 	"/>
	<rect x="202.2" y="151.5" class="st1" width="2.5" height="10.7"/>
	<polygon class="st1" points="216.7,151.5 216.7,162.2 214.7,162.2 209.3,155.7 209.3,162.2 206.9,162.2 206.9,151.5 208.9,151.5 
		214.3,158 214.3,151.5 	"/>
	<path class="st1" d="M226,159.9h-5l-1,2.3h-2.5l4.8-10.7h2.5l4.8,10.7h-2.6L226,159.9z M225.2,158l-1.7-4.1l-1.7,4.1H225.2z"/>
	<polygon class="st1" points="240.1,162.2 240,155.8 236.9,161.1 235.8,161.1 232.6,155.9 232.6,162.2 230.3,162.2 230.3,151.5 
		232.3,151.5 236.4,158.2 240.3,151.5 242.4,151.5 242.4,162.2 	"/>
	<path class="st1" d="M243.9,156.9c0-3.2,2.5-5.6,5.9-5.6c3.4,0,5.9,2.3,5.9,5.6c0,3.2-2.5,5.6-5.9,5.6
		C246.4,162.4,243.9,160.1,243.9,156.9 M253.1,156.9c0-2-1.4-3.4-3.4-3.4s-3.4,1.4-3.4,3.4c0,2,1.4,3.4,3.4,3.4
		S253.1,158.9,253.1,156.9"/>
	<path class="st1" d="M256.3,161.2l0.8-1.9c0.9,0.7,2.3,1.1,3.5,1.1c1.5,0,2.1-0.5,2.1-1.2c0-2-6.2-0.6-6.2-4.6
		c0-1.8,1.5-3.3,4.5-3.3c1.4,0,2.7,0.3,3.7,1l-0.8,1.9c-1-0.6-2-0.8-3-0.8c-1.5,0-2,0.6-2,1.2c0,2,6.2,0.6,6.2,4.6
		c0,1.8-1.5,3.3-4.6,3.3C259,162.4,257.2,161.9,256.3,161.2"/>
	<polygon class="st1" points="275.7,158.4 275.7,162.2 273.2,162.2 273.2,158.4 269,151.5 271.7,151.5 274.5,156.3 277.4,151.5 
		279.8,151.5 	"/>
	<path class="st1" d="M284.5,151.5h4.9c3.5,0,5.9,2.1,5.9,5.4c0,3.3-2.4,5.4-5.9,5.4h-4.9V151.5z M289.2,160.2
		c2.1,0,3.5-1.3,3.5-3.3c0-2.1-1.4-3.3-3.5-3.3H287v6.7H289.2z"/>
	<rect x="296.8" y="151.5" class="st1" width="2.5" height="10.7"/>
	<path class="st1" d="M308.7,156.7h2.3v4.4c-1.2,0.9-2.8,1.4-4.3,1.4c-3.4,0-5.9-2.3-5.9-5.6s2.5-5.6,5.9-5.6c1.9,0,3.5,0.6,4.5,1.9
		l-1.6,1.5c-0.8-0.8-1.7-1.2-2.8-1.2c-2.1,0-3.5,1.4-3.5,3.4c0,2,1.4,3.4,3.5,3.4c0.7,0,1.3-0.1,1.9-0.5V156.7z"/>
	<rect x="312.9" y="151.5" class="st1" width="2.5" height="10.7"/>
	<polygon class="st1" points="319.7,153.5 316.3,153.5 316.3,151.5 325.7,151.5 325.7,153.5 322.2,153.5 322.2,162.2 319.7,162.2 	
		"/>
	<path class="st1" d="M333.2,159.9h-5l-1,2.3h-2.5l4.8-10.7h2.5l4.8,10.7h-2.6L333.2,159.9z M332.4,158l-1.7-4.1L329,158H332.4z"/>
	<polygon class="st1" points="337.5,151.5 340,151.5 340,160.2 345.3,160.2 345.3,162.2 337.5,162.2 	"/>
	<rect x="346.4" y="151.5" class="st1" width="2.5" height="10.7"/>
	<polygon class="st1" points="359.7,160.2 359.7,162.2 350.3,162.2 350.3,160.6 356.2,153.5 350.4,153.5 350.4,151.5 359.5,151.5 
		359.5,153.1 353.6,160.2 	"/>
	<path class="st1" d="M368,159.9h-5l-1,2.3h-2.5l4.8-10.7h2.5l4.8,10.7H369L368,159.9z M367.2,158l-1.7-4.1l-1.7,4.1H367.2z"/>
	<polygon class="st1" points="382.1,162.2 382.1,155.8 378.9,161.1 377.8,161.1 374.6,155.9 374.6,162.2 372.3,162.2 372.3,151.5 
		374.4,151.5 378.4,158.2 382.3,151.5 384.4,151.5 384.4,162.2 	"/>
	<path class="st1" d="M385.9,156.9c0-3.2,2.5-5.6,5.9-5.6c3.4,0,5.9,2.3,5.9,5.6c0,3.2-2.5,5.6-5.9,5.6
		C388.4,162.4,385.9,160.1,385.9,156.9 M395.1,156.9c0-2-1.4-3.4-3.4-3.4c-1.9,0-3.4,1.4-3.4,3.4c0,2,1.4,3.4,3.4,3.4
		C393.7,160.3,395.1,158.9,395.1,156.9"/>
	<path class="st1" d="M398.3,161.2l0.8-1.9c0.9,0.7,2.3,1.1,3.5,1.1c1.5,0,2.1-0.5,2.1-1.2c0-2-6.2-0.6-6.2-4.6
		c0-1.8,1.5-3.3,4.5-3.3c1.4,0,2.7,0.3,3.7,1l-0.8,1.9c-1-0.6-2-0.8-3-0.8c-1.5,0-2,0.6-2,1.2c0,2,6.2,0.6,6.2,4.6
		c0,1.8-1.5,3.3-4.6,3.3C401,162.4,399.3,161.9,398.3,161.2"/>
	<polygon class="st1" points="414.7,153.5 411.3,153.5 411.3,151.5 420.7,151.5 420.7,153.5 417.2,153.5 417.2,162.2 414.7,162.2 	
		"/>
	<path class="st1" d="M421.4,157.5v-6h2.5v5.9c0,2,0.9,2.9,2.4,2.9c1.5,0,2.4-0.8,2.4-2.9v-5.9h2.5v6c0,3.2-1.8,4.9-4.9,4.9
		S421.4,160.7,421.4,157.5"/>
	<path class="st1" d="M432.3,161.2l0.8-1.9c0.9,0.7,2.3,1.1,3.5,1.1c1.5,0,2.1-0.5,2.1-1.2c0-2-6.2-0.6-6.2-4.6
		c0-1.8,1.5-3.3,4.5-3.3c1.4,0,2.7,0.3,3.7,1l-0.8,1.9c-1-0.6-2-0.8-3-0.8c-1.5,0-2,0.6-2,1.2c0,2,6.2,0.6,6.2,4.6
		c0,1.8-1.5,3.3-4.6,3.3C435,162.4,433.3,161.9,432.3,161.2"/>
	<polygon class="st1" points="454.8,160.2 454.8,162.2 446.5,162.2 446.5,151.5 454.6,151.5 454.6,153.5 449,153.5 449,155.8 
		454,155.8 454,157.8 449,157.8 449,160.2 	"/>
	<path class="st1" d="M455.6,161.2l0.8-1.9c0.9,0.7,2.3,1.1,3.5,1.1c1.5,0,2.1-0.5,2.1-1.2c0-2-6.2-0.6-6.2-4.6
		c0-1.8,1.5-3.3,4.5-3.3c1.4,0,2.7,0.3,3.7,1l-0.8,1.9c-1-0.6-2-0.8-3-0.8c-1.5,0-2,0.6-2,1.2c0,2,6.2,0.6,6.2,4.6
		c0,1.8-1.5,3.3-4.6,3.3C458.3,162.4,456.6,161.9,455.6,161.2"/>
	<path class="st1" d="M475.2,155.4c0,2.4-1.8,3.9-4.7,3.9h-2.2v3h-2.5v-10.7h4.6C473.4,151.5,475.2,153,475.2,155.4 M472.7,155.4
		c0-1.2-0.8-1.9-2.3-1.9h-2v3.7h2C471.9,157.3,472.7,156.6,472.7,155.4"/>
	<path class="st1" d="M483.1,159.9h-5l-1,2.3h-2.5l4.8-10.7h2.5l4.8,10.7H484L483.1,159.9z M482.3,158l-1.7-4.1l-1.7,4.1H482.3z"/>
	<path class="st1" d="M486.6,156.9c0-3.2,2.5-5.6,5.8-5.6c1.9,0,3.4,0.7,4.4,1.9l-1.6,1.5c-0.7-0.8-1.6-1.3-2.7-1.3
		c-2,0-3.4,1.4-3.4,3.4c0,2,1.4,3.4,3.4,3.4c1.1,0,2-0.4,2.7-1.3l1.6,1.5c-1,1.2-2.6,1.9-4.4,1.9
		C489.1,162.4,486.6,160.1,486.6,156.9"/>
	<rect x="498.1" y="151.5" class="st1" width="2.5" height="10.7"/>
	<path class="st1" d="M502.1,156.9c0-3.2,2.5-5.6,5.9-5.6c3.4,0,5.9,2.3,5.9,5.6c0,3.2-2.5,5.6-5.9,5.6
		C504.6,162.4,502.1,160.1,502.1,156.9 M511.3,156.9c0-2-1.4-3.4-3.4-3.4c-1.9,0-3.4,1.4-3.4,3.4c0,2,1.4,3.4,3.4,3.4
		C509.9,160.3,511.3,158.9,511.3,156.9"/>
	<path class="st1" d="M514.5,161.2l0.8-1.9c0.9,0.7,2.3,1.1,3.5,1.1c1.5,0,2.1-0.5,2.1-1.2c0-2-6.2-0.6-6.2-4.6
		c0-1.8,1.5-3.3,4.5-3.3c1.4,0,2.7,0.3,3.7,1l-0.8,1.9c-1-0.6-2-0.8-3-0.8c-1.5,0-2,0.6-2,1.2c0,2,6.2,0.6,6.2,4.6
		c0,1.8-1.5,3.3-4.6,3.3C517.2,162.4,515.4,161.9,514.5,161.2"/>
</g>
</svg>
