<?xml version="1.0" encoding="UTF-8" standalone="no"?>
<svg
   xmlns:dc="http://purl.org/dc/elements/1.1/"
   xmlns:cc="http://creativecommons.org/ns#"
   xmlns:rdf="http://www.w3.org/1999/02/22-rdf-syntax-ns#"
   xmlns:svg="http://www.w3.org/2000/svg"
   xmlns="http://www.w3.org/2000/svg"
   xmlns:sodipodi="http://sodipodi.sourceforge.net/DTD/sodipodi-0.dtd"
   xmlns:inkscape="http://www.inkscape.org/namespaces/inkscape"
   width="752"
   height="245"
   viewBox="0 0 198.96682 64.822934"
   version="1.1"
   id="svg1014"
   inkscape:version="1.0.2-2 (e86c870879, 2021-01-15)"
   sodipodi:docname="dibujo.svg">
  <defs
     id="defs1008">
    <style
       id="style1694">
      .cls-1 {
        fill: #270089;
        opacity: .1;
      }

      .cls-2, .cls-3 {
        fill: #f2f2f2;
      }

      .cls-4 {
        fill: #270085;
      }

      .cls-3 {
        stroke: #270089;
        stroke-width: 7.01px;
      }

      .cls-3, .cls-5, .cls-6 {
        stroke-linecap: round;
        stroke-linejoin: round;
      }

      .cls-5, .cls-6 {
        fill: none;
        stroke: #270085;
        stroke-width: 7.39px;
      }

      .cls-7 {
        opacity: 1;
      }

      .cls-6 {
        stroke-dasharray: 0 0 8.48 10.6;
      }
    </style>
  </defs>
  <sodipodi:namedview
     id="base"
     pagecolor="#ffffff"
     bordercolor="#666666"
     borderopacity="1.0"
     inkscape:pageopacity="0.0"
     inkscape:pageshadow="2"
     inkscape:zoom="0.7"
     inkscape:cx="536.28706"
     inkscape:cy="75.532017"
     inkscape:document-units="mm"
     inkscape:current-layer="layer1"
     inkscape:document-rotation="0"
     showgrid="false"
     units="px"
     inkscape:window-width="1920"
     inkscape:window-height="1009"
     inkscape:window-x="-8"
     inkscape:window-y="-8"
     inkscape:window-maximized="1" />
  <metadata
     id="metadata1011">
    <rdf:RDF>
      <cc:Work
         rdf:about="">
        <dc:format>image/svg+xml</dc:format>
        <dc:type
           rdf:resource="http://purl.org/dc/dcmitype/StillImage" />
        <dc:title></dc:title>
      </cc:Work>
    </rdf:RDF>
  </metadata>
  <g
     inkscape:label="Capa 1"
     inkscape:groupmode="layer"
     id="layer1">
    <g
       id="g1796"
       transform="matrix(0.26458362,0,0,0.26458333,-6.4214444,-7.2760416)">
      <g
         id="layer1-8"
         class="cls-7">
        <g
           id="text82">
          <g
             id="text951">
            <g
               id="g1707">
              <path
                 id="path1622"
                 class="cls-4"
                 d="M 24.27,135.66 V 67.37 h 28.1 c 6.05,0 11.22,0.98 15.51,2.93 4.36,1.95 7.71,4.75 10.05,8.39 2.34,3.64 3.51,7.97 3.51,12.98 0,5.01 -1.17,9.33 -3.51,12.98 -2.34,3.58 -5.69,6.34 -10.05,8.29 -4.29,1.89 -9.46,2.83 -15.51,2.83 H 31.3 l 5.66,-5.76 v 25.66 H 24.28 Z m 44.68,0 -17.27,-24.78 h 13.56 l 17.37,24.78 z m -32,-24.29 -5.66,-6.05 h 20.49 c 5.59,0 9.79,-1.2 12.59,-3.61 2.86,-2.41 4.29,-5.76 4.29,-10.05 0,-4.36 -1.43,-7.71 -4.29,-10.05 C 61.57,79.27 57.38,78.1 51.78,78.1 H 31.29 l 5.66,-6.24 z" />
              <path
                 id="path1624"
                 class="cls-4"
                 d="m 118.91,136.34 c -5.79,0 -10.86,-1.14 -15.22,-3.41 -4.29,-2.34 -7.64,-5.53 -10.05,-9.56 -2.34,-4.03 -3.51,-8.62 -3.51,-13.76 0,-5.14 1.14,-9.79 3.41,-13.76 2.34,-4.03 5.53,-7.19 9.56,-9.46 4.1,-2.28 8.75,-3.41 13.95,-3.41 5.2,0 9.59,1.11 13.56,3.32 3.97,2.21 7.09,5.33 9.37,9.37 2.28,4.03 3.41,8.78 3.41,14.24 0,0.52 -0.03,1.11 -0.1,1.76 0,0.65 -0.03,1.27 -0.1,1.85 H 99.78 v -8.1 h 36.98 l -4.78,2.54 c 0.07,-2.99 -0.55,-5.63 -1.85,-7.9 -1.3,-2.28 -3.09,-4.07 -5.37,-5.37 -2.21,-1.3 -4.78,-1.95 -7.71,-1.95 -2.93,0 -5.63,0.65 -7.9,1.95 -2.21,1.3 -3.97,3.12 -5.27,5.46 -1.24,2.28 -1.85,4.98 -1.85,8.1 v 1.95 c 0,3.12 0.72,5.89 2.15,8.29 1.43,2.41 3.45,4.26 6.05,5.56 2.6,1.3 5.59,1.95 8.98,1.95 2.93,0 5.56,-0.46 7.9,-1.37 2.34,-0.91 4.42,-2.34 6.24,-4.29 l 6.54,7.51 c -2.34,2.73 -5.3,4.85 -8.88,6.34 -3.51,1.43 -7.54,2.15 -12.1,2.15 z" />
              <path
                 id="path1626"
                 class="cls-4"
                 d="m 179,136.34 c -5.46,0 -10.34,-1.14 -14.63,-3.41 -4.23,-2.34 -7.54,-5.53 -9.95,-9.56 -2.41,-4.03 -3.61,-8.62 -3.61,-13.76 0,-5.14 1.2,-9.79 3.61,-13.76 2.41,-4.03 5.72,-7.19 9.95,-9.46 4.29,-2.28 9.17,-3.41 14.63,-3.41 5.07,0 9.53,1.04 13.37,3.12 3.9,2.02 6.86,5.01 8.88,8.98 l -9.37,5.46 c -1.56,-2.47 -3.48,-4.29 -5.76,-5.46 -2.21,-1.17 -4.62,-1.76 -7.22,-1.76 -2.99,0 -5.69,0.65 -8.1,1.95 -2.41,1.3 -4.29,3.19 -5.66,5.66 -1.37,2.41 -2.05,5.3 -2.05,8.68 0,3.38 0.68,6.31 2.05,8.78 1.37,2.41 3.25,4.26 5.66,5.56 2.41,1.3 5.11,1.95 8.1,1.95 2.6,0 5.01,-0.59 7.22,-1.76 2.28,-1.17 4.2,-2.99 5.76,-5.46 l 9.37,5.46 c -2.02,3.9 -4.98,6.93 -8.88,9.07 -3.84,2.08 -8.29,3.12 -13.37,3.12 z" />
              <path
                 id="path1628"
                 class="cls-4"
                 d="m 234.42,136.34 c -5.33,0 -10.08,-1.14 -14.24,-3.41 -4.16,-2.34 -7.45,-5.53 -9.85,-9.56 -2.41,-4.03 -3.61,-8.62 -3.61,-13.76 0,-5.14 1.2,-9.79 3.61,-13.76 2.41,-4.03 5.69,-7.19 9.85,-9.46 4.16,-2.28 8.91,-3.41 14.24,-3.41 5.33,0 10.18,1.14 14.34,3.41 4.23,2.28 7.51,5.4 9.85,9.37 2.41,3.97 3.61,8.59 3.61,13.85 0,5.26 -1.2,9.72 -3.61,13.76 -2.34,4.03 -5.63,7.22 -9.85,9.56 -4.16,2.28 -8.94,3.41 -14.34,3.41 z m 0,-10.44 c 2.99,0 5.66,-0.65 8,-1.95 2.34,-1.3 4.16,-3.19 5.46,-5.66 1.37,-2.47 2.05,-5.37 2.05,-8.68 0,-3.31 -0.68,-6.28 -2.05,-8.68 -1.3,-2.47 -3.12,-4.36 -5.46,-5.66 -2.34,-1.3 -4.98,-1.95 -7.9,-1.95 -2.92,0 -5.66,0.65 -8,1.95 -2.28,1.3 -4.1,3.19 -5.46,5.66 -1.37,2.41 -2.05,5.3 -2.05,8.68 0,3.38 0.68,6.21 2.05,8.68 1.37,2.47 3.19,4.36 5.46,5.66 2.34,1.3 4.98,1.95 7.9,1.95 z" />
              <path
                 id="path1630"
                 class="cls-4"
                 d="m 273.93,135.66 v -52.1 h 11.61 V 97.9 l -1.37,-4.2 c 1.56,-3.51 4,-6.18 7.32,-8 3.38,-1.82 7.58,-2.73 12.59,-2.73 v 11.61 c -0.52,-0.13 -1.01,-0.2 -1.46,-0.2 -0.46,-0.07 -0.91,-0.1 -1.37,-0.1 -4.62,0 -8.29,1.37 -11.02,4.1 -2.73,2.67 -4.1,6.67 -4.1,12 v 25.27 h -12.2 z" />
              <path
                 id="path1632"
                 class="cls-4"
                 d="m 314.42,135.66 v -52.1 h 11.61 V 97.9 l -1.37,-4.2 c 1.56,-3.51 4,-6.18 7.32,-8 3.38,-1.82 7.58,-2.73 12.59,-2.73 v 11.61 c -0.52,-0.13 -1.01,-0.2 -1.46,-0.2 -0.46,-0.07 -0.91,-0.1 -1.37,-0.1 -4.62,0 -8.29,1.37 -11.02,4.1 -2.73,2.67 -4.1,6.67 -4.1,12 v 25.27 h -12.2 z" />
              <path
                 id="path1634"
                 class="cls-4"
                 d="m 354.91,135.66 v -52.1 h 12.2 v 52.1 z m 6.15,-60.68 c -2.28,0 -4.16,-0.72 -5.66,-2.15 -1.43,-1.43 -2.15,-3.15 -2.15,-5.17 0,-2.02 0.72,-3.8 2.15,-5.17 1.5,-1.43 3.38,-2.15 5.66,-2.15 2.28,0 4.13,0.68 5.56,2.05 1.5,1.3 2.24,2.96 2.24,4.98 0,2.15 -0.72,3.97 -2.15,5.46 -1.43,1.43 -3.32,2.15 -5.66,2.15 z" />
              <path
                 id="path1636"
                 class="cls-4"
                 d="m 405.15,136.34 c -5.01,0 -9.53,-1.11 -13.56,-3.32 -3.97,-2.28 -7.09,-5.4 -9.37,-9.37 -2.28,-3.97 -3.41,-8.65 -3.41,-14.05 0,-5.4 1.14,-10.08 3.41,-14.05 2.28,-3.97 5.4,-7.06 9.37,-9.27 4.03,-2.21 8.55,-3.32 13.56,-3.32 4.36,0 8.26,0.98 11.71,2.93 3.45,1.89 6.18,4.78 8.2,8.68 2.02,3.9 3.02,8.91 3.02,15.02 0,6.11 -0.98,11.06 -2.93,15.02 -1.95,3.9 -4.65,6.83 -8.1,8.78 -3.45,1.95 -7.41,2.93 -11.9,2.93 v 0 z m 1.46,-10.44 c 2.93,0 5.53,-0.65 7.8,-1.95 2.34,-1.3 4.2,-3.19 5.56,-5.66 1.43,-2.47 2.15,-5.37 2.15,-8.68 0,-3.31 -0.72,-6.28 -2.15,-8.68 -1.37,-2.47 -3.22,-4.36 -5.56,-5.66 -2.28,-1.3 -4.88,-1.95 -7.8,-1.95 -2.92,0 -5.56,0.65 -7.9,1.95 -2.28,1.3 -4.13,3.19 -5.56,5.66 -1.37,2.41 -2.05,5.3 -2.05,8.68 0,3.38 0.68,6.21 2.05,8.68 1.43,2.47 3.28,4.36 5.56,5.66 2.34,1.3 4.98,1.95 7.9,1.95 z m 15.8,9.76 v -12.29 l 0.49,-13.85 -0.98,-13.85 V 63.28 h 12.1 v 72.39 h -11.61 z" />
              <path
                 id="path1638"
                 class="cls-4"
                 d="m 473.54,136.34 c -5.33,0 -10.08,-1.14 -14.24,-3.41 -4.16,-2.34 -7.45,-5.53 -9.85,-9.56 -2.41,-4.03 -3.61,-8.62 -3.61,-13.76 0,-5.14 1.2,-9.79 3.61,-13.76 2.41,-4.03 5.69,-7.19 9.85,-9.46 4.16,-2.28 8.91,-3.41 14.24,-3.41 5.33,0 10.18,1.14 14.34,3.41 4.23,2.28 7.51,5.4 9.85,9.37 2.41,3.97 3.61,8.59 3.61,13.85 0,5.26 -1.2,9.72 -3.61,13.76 -2.34,4.03 -5.63,7.22 -9.85,9.56 -4.16,2.28 -8.94,3.41 -14.34,3.41 z m 0,-10.44 c 2.99,0 5.66,-0.65 8,-1.95 2.34,-1.3 4.16,-3.19 5.46,-5.66 1.37,-2.47 2.05,-5.37 2.05,-8.68 0,-3.31 -0.68,-6.28 -2.05,-8.68 -1.3,-2.47 -3.12,-4.36 -5.46,-5.66 -2.34,-1.3 -4.98,-1.95 -7.9,-1.95 -2.92,0 -5.66,0.65 -8,1.95 -2.28,1.3 -4.1,3.19 -5.46,5.66 -1.37,2.41 -2.05,5.3 -2.05,8.68 0,3.38 0.68,6.21 2.05,8.68 1.37,2.47 3.19,4.36 5.46,5.66 2.34,1.3 4.98,1.95 7.9,1.95 z" />
            </g>
            <g
               id="g1716">
              <path
                 id="path1640"
                 class="cls-4"
                 d="M 128.42,238.97 98.57,170.68 h 13.76 l 26.63,61.76 h -7.9 l 26.93,-61.76 h 12.68 l -29.76,68.29 z" />
              <path
                 id="path1642"
                 class="cls-4"
                 d="m 177.2,238.97 v -52.1 h 12.2 v 52.1 z m 6.15,-60.68 c -2.28,0 -4.16,-0.72 -5.66,-2.15 -1.43,-1.43 -2.15,-3.15 -2.15,-5.17 0,-2.02 0.72,-3.8 2.15,-5.17 1.5,-1.43 3.38,-2.15 5.66,-2.15 2.28,0 4.13,0.68 5.56,2.05 1.5,1.3 2.24,2.96 2.24,4.98 0,2.15 -0.72,3.97 -2.15,5.46 -1.43,1.43 -3.32,2.15 -5.66,2.15 v 0 z" />
              <path
                 id="path1644"
                 class="cls-4"
                 d="m 205.39,238.97 v -52.1 H 217 v 14.34 l -1.37,-4.2 c 1.56,-3.51 4,-6.18 7.32,-8 3.38,-1.82 7.58,-2.73 12.59,-2.73 v 11.61 c -0.52,-0.13 -1.01,-0.2 -1.46,-0.2 -0.46,-0.07 -0.91,-0.1 -1.37,-0.1 -4.62,0 -8.29,1.37 -11.02,4.1 -2.73,2.67 -4.1,6.67 -4.1,12 v 25.27 h -12.2 z" />
              <path
                 id="path1646"
                 class="cls-4"
                 d="m 267.44,239.66 c -5.72,0 -10.15,-1.46 -13.27,-4.39 -3.12,-2.99 -4.68,-7.38 -4.68,-13.17 v -46.73 h 12.2 v 46.44 c 0,2.47 0.62,4.39 1.85,5.76 1.3,1.37 3.09,2.05 5.37,2.05 2.73,0 5.01,-0.72 6.83,-2.15 l 3.41,8.68 c -1.43,1.17 -3.19,2.05 -5.27,2.63 -2.08,0.59 -4.23,0.88 -6.44,0.88 z M 240.9,197.03 v -9.76 h 34.73 v 9.76 z" />
              <path
                 id="path1648"
                 class="cls-4"
                 d="m 311.25,239.66 c -4.42,0 -8.33,-0.81 -11.71,-2.44 -3.38,-1.69 -6.02,-4.23 -7.9,-7.61 -1.89,-3.45 -2.83,-7.77 -2.83,-12.98 v -29.76 h 12.2 v 28.1 c 0,4.68 1.04,8.2 3.12,10.54 2.15,2.28 5.17,3.41 9.07,3.41 2.86,0 5.33,-0.59 7.41,-1.76 2.15,-1.17 3.8,-2.93 4.98,-5.27 1.24,-2.34 1.85,-5.24 1.85,-8.68 v -26.34 h 12.2 v 52.1 h -11.61 v -14.05 l 2.05,4.29 c -1.76,3.38 -4.33,5.98 -7.71,7.8 -3.38,1.76 -7.09,2.63 -11.12,2.63 v 0 z" />
              <path
                 id="path1650"
                 class="cls-4"
                 d="m 387.74,238.97 v -10.54 l -0.68,-2.24 v -18.44 c 0,-3.58 -1.07,-6.34 -3.22,-8.29 -2.15,-2.02 -5.4,-3.02 -9.76,-3.02 -2.93,0 -5.82,0.46 -8.68,1.37 -2.8,0.91 -5.17,2.18 -7.12,3.8 l -4.78,-8.88 c 2.8,-2.15 6.11,-3.74 9.95,-4.78 3.9,-1.11 7.94,-1.66 12.1,-1.66 7.54,0 13.37,1.82 17.46,5.46 4.16,3.58 6.24,9.14 6.24,16.68 v 30.54 z m -16.39,0.68 c -3.9,0 -7.32,-0.65 -10.24,-1.95 -2.93,-1.37 -5.2,-3.22 -6.83,-5.56 -1.56,-2.41 -2.34,-5.11 -2.34,-8.1 0,-2.99 0.68,-5.56 2.05,-7.9 1.43,-2.34 3.74,-4.2 6.93,-5.56 3.19,-1.37 7.41,-2.05 12.68,-2.05 h 15.12 v 8.1 h -14.24 c -4.16,0 -6.96,0.68 -8.39,2.05 -1.43,1.3 -2.15,2.93 -2.15,4.88 0,2.21 0.88,3.97 2.63,5.27 1.76,1.3 4.2,1.95 7.32,1.95 3.12,0 5.66,-0.68 8,-2.05 2.41,-1.37 4.13,-3.38 5.17,-6.05 l 2.05,7.32 c -1.17,3.06 -3.28,5.43 -6.34,7.12 -2.99,1.69 -6.8,2.54 -11.41,2.54 v 0 z" />
              <path
                 id="path1652"
                 class="cls-4"
                 d="m 414.86,238.97 v -72.39 h 12.2 v 72.39 z" />
            </g>
          </g>
        </g>
      </g>
      <g
         id="g1751">
        <circle
           class="cls-1"
           cx="653.22998"
           cy="150"
           r="122.5"
           id="circle1721" />
        <circle
           class="cls-2"
           cx="651.65997"
           cy="152.49001"
           r="89.080002"
           id="circle1723" />
        <g
           id="g1731">
          <path
             class="cls-4"
             d="m 625.5,160.44 c 0,8.74 -6.99,17.47 -23.3,17.47 -6.99,0 -14.63,-1.53 -20.09,-4.59 l 5.82,-12.67 c 4.37,2.55 9.39,3.71 13.69,3.71 3.86,0 6.62,-1.31 6.62,-3.93 0,-2.18 -1.67,-3.49 -6.04,-3.49 h -6.77 v -10.56 l 7.5,-7.64 h -18.2 v -12.96 h 38 v 10.56 l -9.46,9.61 c 8.01,1.97 12.23,7.43 12.23,14.49 z"
             id="path1725" />
          <path
             class="cls-4"
             d="m 674.5,160.08 c 0,10.92 -9.17,17.84 -20.68,17.84 -14.56,0 -24.46,-8.37 -24.46,-25.04 0,-17.84 11.43,-28.25 28.25,-28.25 6.04,0 11.94,1.46 15.8,4 l -6.19,12.01 c -2.98,-2.11 -6.04,-2.69 -9.25,-2.69 -5.82,0 -9.9,2.98 -11.07,8.66 2.55,-1.82 5.82,-2.84 10.12,-2.84 9.32,0 17.47,6.33 17.47,16.31 z m -16.6,0.8 c 0,-3.2 -2.18,-5.24 -5.24,-5.24 -3.06,0 -5.24,2.04 -5.24,5.24 0,3.2 2.18,5.17 5.24,5.17 3.06,0 5.24,-1.97 5.24,-5.17 z"
             id="path1727" />
          <path
             class="cls-4"
             d="m 677.48,151.27 c 0,-16.89 9.61,-26.65 23.08,-26.65 13.47,0 23.08,9.76 23.08,26.65 0,16.89 -9.61,26.65 -23.08,26.65 -13.47,0 -23.08,-9.76 -23.08,-26.65 z m 28.9,0 c 0,-9.83 -2.48,-12.89 -5.82,-12.89 -3.34,0 -5.82,3.06 -5.82,12.89 0,9.83 2.48,12.89 5.82,12.89 3.34,0 5.82,-3.06 5.82,-12.89 z"
             id="path1729" />
        </g>
        <g
           id="g1747">
          <g
             id="g1737">
            <path
               class="cls-5"
               d="m 581.23,208.87 c -12.38,-15.44 -19.78,-35.04 -19.78,-56.38 0,-49.82 40.39,-90.21 90.21,-90.21 7.35,0 14.49,0.88 21.33,2.54"
               id="path1733" />
            <polygon
               class="cls-4"
               points="670.86,64.29 662.23,48.81 672.46,51.72 681.09,67.19 665.61,75.82 655.38,72.91 "
               id="polygon1735" />
          </g>
          <g
             id="g1745">
            <path
               class="cls-5"
               d="m 713.63,86.94 c 0.99,0.94 1.97,1.9 2.92,2.89"
               id="path1739" />
            <path
               class="cls-6"
               d="m 723.45,97.86 c 11.55,15.16 18.41,34.09 18.41,54.63 0,49.82 -40.39,90.21 -90.21,90.21 -21.36,0 -40.98,-7.42 -56.44,-19.83 l -0.39,-0.37"
               id="path1741" />
            <line
               class="cls-5"
               x1="591"
               y1="218.85001"
               x2="588.03003"
               y2="216.00999"
               id="line1743" />
          </g>
        </g>
        <circle
           class="cls-3"
           cx="735.71002"
           cy="121.47"
           r="11.5"
           id="circle1749" />
      </g>
    </g>
  </g>
</svg>
